TITLE:

TED 2012 720p TS XViD - INSPiRAL

IMDB:
 
http://www.imdb.com/title/tt1637725/


SOURCES:

VIDEO - kINGDOM 720p files
AUDIO - CM8 LiNE
SUBS - None Add

STATS:
Video
ID : 0
Format : MPEG-4 Visual
Format profile : Advanced Simple@L5
Format settings, BVOP : 2
Format settings, QPel : No
Format settings, GMC : No warppoints
Format settings, Matrix : Default (MPEG)
Muxing mode : Packed bitstream
Codec ID : XVID
Codec ID/Hint : XviD
Duration : 1h 39mn
Bit rate : 3 499 Kbps
Width : 1 280 pixels
Height : 672 pixels
Display aspect ratio : 1.905
Frame rate : 29.970 fps
Color space : YUV
Chroma subsampling : 4:2:0
Bit depth : 8 bits
Scan type : Progressive
Compression mode : Lossy
Bits/(Pixel*Frame) : 0.136
Stream size : 2.44 GiB (96%)
Writing library : XviD 64

Audio
ID : 1
Format : MPEG Audio
Format version : Version 1
Format profile : Layer 3
Mode : Joint stereo
Mode extension : MS Stereo
Codec ID : 55
Codec ID/Hint : MP3
Duration : 1h 39mn
Bit rate mode : Constant
Bit rate : 128 Kbps
Channel(s) : 2 channels
Sampling rate : 44.1 KHz
Compression mode : Lossy
Stream size : 91.4 MiB (4%)
Alignment : Split accross interleaves
Interleave, duration : 33 ms (1.00 video frame)
Interleave, preload duration : 500 ms


NOTES:

Ok heres our take on TED....to go with the other 100 copies
Wasn't going too bother but when handed the 720p file,it would be rude not to!!
Video we cut into 3 and rotated and pulled the sides differently on each part ...needed a res that
look good for all of it so the AR might change slightly during these 3 parts.
Video we cleaned up changing all the normal stuff.
Audio we had too sync too the video ...more or less went over but needed a few -200 - +200 shifts here
and there.
After we cleaned it and remuxed and hey presto .....THE FUNNIEST film this year !!
 
http://img402.imageshack.us/img402/6769/54967418.jpg 
http://img96.imageshack.us/img96/5641/99059442.png 
http://img20.imageshack.us/img20/67/98523979.png 
http://img854.imageshack.us/img854/681/61118538.png 
http://img3.imageshack.us/img3/4560/58179750.png